<svg xmlns="http://www.w3.org/2000/svg" width="86" height="65"><g fill="#787eb3" fill-rule="nonzero"><path d="m83.2.9-6.2.7-4.5.6-.1 5.7v5.6h-.2a7 7 0 0 0-2.2 0c-.9.2-1.7.8-2.1 1.4-.3.4-.3 1.2-.1 1.8.2.8 1.2 1.6 2.2 1.8h2.1c.8-.2 1.7-.8 2.1-1.5l.2-.4v-5.3l.1-5.4 7.2-.9 2.2-.2.1 3.7v3.6l-.4-.1c-1.7-.3-3.1 0-4 1-.5.5-.6 1-.6 1.7.1.9.6 1.6 1.6 2.1 1.7.8 4 .2 4.8-1.2l.2-.4V.8h-.3c-.1-.1-1.1 0-2.1.1Zm-8.4 37.5-1.7.2v3.2h-.4c-.7 0-1.1.4-1 .9.2.7 1.5.7 1.8.1l.1-1.6c0-1.4 0-1.5.2-1.5l2.3-.3h.2v2h-.4c-.4 0-.5 0-.7.2-.2.2-.2.2-.2.5 0 .5.2.7.9.7.5 0 .5 0 .7-.2l.3-.3v-2.1l-.1-2-2 .2ZM33.6 3c-.2.1-.6.4-.7.7-.2.4-.1.9.3 2.1l.3 1.1-1.2-.7c-3.3-2.2-3.5-2.4-4-2.4l-.6.2c-.3.1-.4.2-.5.5-.3.8-.2.9 1.8 4.3l1.3 2.3-1.3.7a23.8 23.8 0 0 0-10.4 10.7c-1 2.1-1.2 2.3-1.9 2.9a8.5 8.5 0 0 1-11 .4c-1.3-1-2-2.2-2.7-4.2-.4-1.2-.6-1.5-1-1.5S1 21 .7 22c-.5 1.9.4 6.7 2 10.6l2 4.2A40.7 40.7 0 0 0 29 57.1l.9.2v.5c0 .3 0 1.6-.2 2.9l-.2 2.4.3.1a7 7 0 0 0 2.1-.1l.1-.2c-.1-.4.3-4.7.4-4.8l3.3.3h.2v.8l-.2 2.3-.2 1.6 2.5.2c.1-.1.5-3 .5-3.9v-1h1.3c1.7 0 3.6-.3 5.3-.8l.6-.2.5.4c1.1 1 2.6 2 3.9 2.7.8.4 2.5 1 3.1 1.1l.4.2.3 1.5c.3 1.5.2 1.4.9 1.3l.4-.2-.2-1.3-.2-1.2h1.6l.2 1.3.3 1.4a3 3 0 0 0 1-.2l-.2-1.2-.2-1.2h.8c2 0 3.9-.8 5.8-2.5l1.2-1.2c1.6-2.2 2.3-5.9 1.6-8.8l.1-.4.9-1.1 1-1.3a1 1 0 0 0 0-1.1c-.3-.4-.5-.4-2.3-.5H65l-.7-.7a9.8 9.8 0 0 0-2.8-2.1l-.8-.4.1-.6a27.5 27.5 0 0 0 .6-10.3l-.2-1.3 1.2-1.1a34 34 0 0 0 4.5-4.4c.2-.4.3-.9.1-1.2-.2-.4-1.5-.7-7.6-1.4l-1.3-.2-.6-.9c-1.9-2.7-3-3.9-4.6-5.4a21.5 21.5 0 0 0-6.3-3.9l-.8-.4-1.9-2.2a20.5 20.5 0 0 0-3.8-4c-.7-.3-1.1.4-1.3 2v.5l-1.9-1.9c-1.4-1.5-1.9-1.9-2.2-2-.5-.2-.9-.2-1.1-.2Zm16.6 17.2c.5.2.8.6 1.2 1.3.4.8.5 1.5.5 2.5-.1 1.5-.7 2.4-1.6 2.2-.4-.1-.9-.6-1.2-1.1-.8-1.6-.7-4.4.2-4.9.4-.2.5-.2.9 0Zm5 20.7 1.1.8.5.4v-.7c0-.6 0-.7.1-.6l1 .9c.9.9 1 .9 1.7 1.1 1.6.5 3 1.4 4.1 2.7l.7.7h.7l1.7.1h1l-.3.4-1 1.2-.7.8.1.5c.7 2.6.4 5.8-.8 7.9a9.3 9.3 0 0 1-4.1 3.4c-1 .4-1.3.5-3.7.4l-2.7-.1c-3.8-.6-7.4-3-10.1-6.9-1-1.5-1.7-2.9-2.1-4.6 0-.2 0-.2.2.1.3.4.9 1 1.3 1.2a4 4 0 0 0 4.7-.7c.4-.4.6-.7 1-1.8a8.2 8.2 0 0 1 3.4-4.5c1-.7 1-.8 0-2l-.7-.9.9.4c1 .5 1.4.6 1.5.2.1-.4.1-.5-.1-.9l-.1-.3c0 .3.3.5.7.8Zm5.7 4.3c-.4.2-.5.5-.5 1.1-.1 1.6 1 2.9 2 2.3.8-.5.6-2.4-.3-3.2-.4-.3-.9-.4-1.2-.2Zm1 1c.3.3.4.8.4 1.2-.1.3-.3.5-.5.4-.6-.3-.9-1.3-.5-1.7 0-.1.4-.1.6.1Z"/></g></svg>