<svg xmlns="http://www.w3.org/2000/svg" width="570" height="570"><g fill="none" fill-rule="evenodd"><path fill="none" d="M-15-15h600v600H-15z"/><g><circle cx="285" cy="285" r="285" fill="#343443"/><path fill="#BEBCC9" fill-rule="nonzero" d="M273.4 86.6c-.9 0-2.6 1.8-3.4 2.6-1.8 2.6-1.8 5.2.8 12 .9 2.6 1.7 6 2.6 7.7.9 2.6.9 2.6-.9 1.8-.8 0-6.8-4.3-13.7-9.5-6.9-4.3-13.8-9.4-15.5-10.3-3.4-1.7-7.7-.8-9.4.9-1.8 1.7-2.6 6-1.8 9.4 0 .9 5.2 9.5 10.4 18.9 7.7 12.9 9.4 17.2 9.4 17.2 0 .8-3.4 2.5-7.7 4.2a153.9 153.9 0 0 0-68.8 71.3c-3.4 6-6.9 12.8-7.7 14.5a47.3 47.3 0 0 1-17.2 13 47 47 0 0 1-24 5 54.3 54.3 0 0 1-25.9-6C87 232.6 79.1 223.2 73.1 206c-1.7-4.3-2.6-7.7-3.4-8.6-3.5-4.3-9.5 2.6-12 13.7-1 3.5-1 6 0 12 2.5 24 9.4 49.8 21.4 72.1 31.8 62.6 78.3 109 131.5 132.1 10.4 4.3 25.8 9.5 34.4 12l5.2.9v6c0 3.4-.9 12-.9 18.9-.8 6.8-.8 13.7-.8 13.7 0 .9 12.9 0 14.6 0 .8 0 1.7-.8 1.7-1.7 0-.9.9-19.7 1.7-26.6l.9-6h2.6c1.7 0 6.8.9 12 1.7l9.4.9v4.3c0 1.7-.8 8.5-1.7 14.5 0 8.6-.8 14.6-.8 15.5v1.7h8.6c4.3 0 8.6 0 8.6-.9 0-.8.8-5.1 1.7-11.1.8-6 1.7-12.9 1.7-15.5v-4.2h4.3c5.2.8 16.3-.9 26.6-2.6a151.7 151.7 0 0 0 61-28.3c20.7-15.5 32.7-30 43-56.7 13.8-32.6 18.1-66.9 13-100.3 0-2.6 0-2.6 11.1-12.9 18-16.3 25.8-24 26.7-26.6 1.7-4.3.8-7.7-3.5-9.4a368 368 0 0 0-38.6-6l-16.4-1.7-2.6-4.3a233.4 233.4 0 0 0-22.3-28.3 156.5 156.5 0 0 0-48.1-33.5l-7.8-3.4-11.2-13c-24.9-29-27.5-30.8-31.8-26.5-1.7 1.7-2.5 5.1-3.4 12l-.9 3.4-12.9-12.8a83.4 83.4 0 0 0-15.4-13.8c-3.5-.8-4.3-.8-6.9 0ZM384.6 199c4.5 1.7 9 9.5 9.8 16.4 1.8 7.8-.9 19.1-4.4 21.7-3.6 2.6-9.9 0-13.4-6a35 35 0 0 1-3.6-18.3c0-6 0-7.8 1.8-10.4.9-1.7 1.8-3.4 2.7-4.3 1.8 0 5.3 0 7.1.9Z"/></g></g></svg>